<mxfile host="app.diagrams.net" modified="2021-09-17T18:17:58.239Z" agent="5.0 (Windows NT 10.0; Win64; x64) AppleWebKit/537.36 (KHTML, like Gecko) Chrome/93.0.4577.63 Safari/537.36" etag="8Ko4oLTONoeLi-ieXWoH" version="15.2.7" type="github" pages="2">
  <diagram id="C5RBs43oDa-KdzZeNtuy" name="Sign-up">
    <mxGraphModel dx="1732" dy="682" grid="1" gridSize="10" guides="1" tooltips="1" connect="1" arrows="1" fold="1" page="1" pageScale="1" pageWidth="827" pageHeight="1169" math="0" shadow="0">
      <root>
        <mxCell id="WIyWlLk6GJQsqaUBKTNV-0" />
        <mxCell id="WIyWlLk6GJQsqaUBKTNV-1" parent="WIyWlLk6GJQsqaUBKTNV-0" />
        <mxCell id="GIKHV-PAGVBqHQQBZUJR-20" style="edgeStyle=orthogonalEdgeStyle;rounded=0;orthogonalLoop=1;jettySize=auto;html=1;entryX=0;entryY=0.5;entryDx=0;entryDy=0;" parent="WIyWlLk6GJQsqaUBKTNV-1" target="GIKHV-PAGVBqHQQBZUJR-2" edge="1">
          <mxGeometry relative="1" as="geometry">
            <mxPoint x="151" y="185" as="sourcePoint" />
          </mxGeometry>
        </mxCell>
        <mxCell id="GIKHV-PAGVBqHQQBZUJR-11" style="edgeStyle=orthogonalEdgeStyle;rounded=0;orthogonalLoop=1;jettySize=auto;html=1;entryX=0;entryY=0.5;entryDx=0;entryDy=0;" parent="WIyWlLk6GJQsqaUBKTNV-1" source="GIKHV-PAGVBqHQQBZUJR-2" target="GIKHV-PAGVBqHQQBZUJR-7" edge="1">
          <mxGeometry relative="1" as="geometry" />
        </mxCell>
        <mxCell id="GIKHV-PAGVBqHQQBZUJR-2" value="클라이언트에서&lt;br&gt;인증 동의" style="rounded=1;whiteSpace=wrap;html=1;absoluteArcSize=1;arcSize=14;strokeWidth=2;" parent="WIyWlLk6GJQsqaUBKTNV-1" vertex="1">
          <mxGeometry x="210" y="160" width="110" height="50" as="geometry" />
        </mxCell>
        <mxCell id="GIKHV-PAGVBqHQQBZUJR-17" style="edgeStyle=orthogonalEdgeStyle;rounded=0;orthogonalLoop=1;jettySize=auto;html=1;entryX=0.35;entryY=1.028;entryDx=0;entryDy=0;entryPerimeter=0;exitX=0.364;exitY=-0.027;exitDx=0;exitDy=0;exitPerimeter=0;" parent="WIyWlLk6GJQsqaUBKTNV-1" source="GIKHV-PAGVBqHQQBZUJR-3" edge="1">
          <mxGeometry relative="1" as="geometry">
            <mxPoint x="635" y="91.68000000000006" as="targetPoint" />
          </mxGeometry>
        </mxCell>
        <mxCell id="llcBvOOn5jbD0pACKcjk-19" style="edgeStyle=orthogonalEdgeStyle;rounded=0;orthogonalLoop=1;jettySize=auto;html=1;entryX=0.5;entryY=0;entryDx=0;entryDy=0;entryPerimeter=0;" parent="WIyWlLk6GJQsqaUBKTNV-1" source="GIKHV-PAGVBqHQQBZUJR-3" target="llcBvOOn5jbD0pACKcjk-18" edge="1">
          <mxGeometry relative="1" as="geometry" />
        </mxCell>
        <mxCell id="GIKHV-PAGVBqHQQBZUJR-3" value="사용자조회" style="rounded=1;whiteSpace=wrap;html=1;absoluteArcSize=1;arcSize=14;strokeWidth=2;" parent="WIyWlLk6GJQsqaUBKTNV-1" vertex="1">
          <mxGeometry x="595" y="160" width="110" height="50" as="geometry" />
        </mxCell>
        <mxCell id="GIKHV-PAGVBqHQQBZUJR-15" style="edgeStyle=orthogonalEdgeStyle;rounded=0;orthogonalLoop=1;jettySize=auto;html=1;entryX=0.652;entryY=0.013;entryDx=0;entryDy=0;entryPerimeter=0;exitX=0.673;exitY=1.017;exitDx=0;exitDy=0;exitPerimeter=0;" parent="WIyWlLk6GJQsqaUBKTNV-1" target="GIKHV-PAGVBqHQQBZUJR-7" edge="1">
          <mxGeometry relative="1" as="geometry">
            <mxPoint x="462.29999999999995" y="91.0200000000001" as="sourcePoint" />
          </mxGeometry>
        </mxCell>
        <mxCell id="GIKHV-PAGVBqHQQBZUJR-12" style="edgeStyle=orthogonalEdgeStyle;rounded=0;orthogonalLoop=1;jettySize=auto;html=1;entryX=0.373;entryY=1.061;entryDx=0;entryDy=0;entryPerimeter=0;exitX=0.391;exitY=0.027;exitDx=0;exitDy=0;exitPerimeter=0;" parent="WIyWlLk6GJQsqaUBKTNV-1" source="GIKHV-PAGVBqHQQBZUJR-7" edge="1">
          <mxGeometry relative="1" as="geometry">
            <mxPoint x="432.29999999999995" y="93.66000000000008" as="targetPoint" />
          </mxGeometry>
        </mxCell>
        <mxCell id="GIKHV-PAGVBqHQQBZUJR-16" style="edgeStyle=orthogonalEdgeStyle;rounded=0;orthogonalLoop=1;jettySize=auto;html=1;entryX=0;entryY=0.5;entryDx=0;entryDy=0;" parent="WIyWlLk6GJQsqaUBKTNV-1" source="GIKHV-PAGVBqHQQBZUJR-7" target="GIKHV-PAGVBqHQQBZUJR-3" edge="1">
          <mxGeometry relative="1" as="geometry" />
        </mxCell>
        <mxCell id="GIKHV-PAGVBqHQQBZUJR-7" value="인증" style="rounded=1;whiteSpace=wrap;html=1;absoluteArcSize=1;arcSize=14;strokeWidth=2;" parent="WIyWlLk6GJQsqaUBKTNV-1" vertex="1">
          <mxGeometry x="390" y="160" width="110" height="50" as="geometry" />
        </mxCell>
        <mxCell id="GIKHV-PAGVBqHQQBZUJR-18" style="edgeStyle=orthogonalEdgeStyle;rounded=0;orthogonalLoop=1;jettySize=auto;html=1;exitX=0.697;exitY=1.028;exitDx=0;exitDy=0;exitPerimeter=0;" parent="WIyWlLk6GJQsqaUBKTNV-1" edge="1">
          <mxGeometry relative="1" as="geometry">
            <mxPoint x="666.6999999999998" y="93.67999999999995" as="sourcePoint" />
            <mxPoint x="667" y="160" as="targetPoint" />
            <Array as="points">
              <mxPoint x="667" y="113" />
              <mxPoint x="667" y="113" />
            </Array>
          </mxGeometry>
        </mxCell>
        <mxCell id="GIKHV-PAGVBqHQQBZUJR-23" style="edgeStyle=orthogonalEdgeStyle;rounded=0;orthogonalLoop=1;jettySize=auto;html=1;entryX=0;entryY=0.5;entryDx=0;entryDy=0;entryPerimeter=0;" parent="WIyWlLk6GJQsqaUBKTNV-1" target="KWqq9Z1RTZp0OEMmkFyI-3" edge="1">
          <mxGeometry relative="1" as="geometry">
            <mxPoint x="145" y="369.65999999999997" as="sourcePoint" />
            <mxPoint x="213.79999999999995" y="370" as="targetPoint" />
          </mxGeometry>
        </mxCell>
        <mxCell id="GIKHV-PAGVBqHQQBZUJR-44" style="edgeStyle=orthogonalEdgeStyle;rounded=0;orthogonalLoop=1;jettySize=auto;html=1;entryX=0;entryY=0.5;entryDx=0;entryDy=0;entryPerimeter=0;exitX=1;exitY=0.5;exitDx=0;exitDy=0;exitPerimeter=0;" parent="WIyWlLk6GJQsqaUBKTNV-1" source="KWqq9Z1RTZp0OEMmkFyI-3" target="GIKHV-PAGVBqHQQBZUJR-39" edge="1">
          <mxGeometry relative="1" as="geometry">
            <mxPoint x="306.20000000000005" y="370" as="sourcePoint" />
          </mxGeometry>
        </mxCell>
        <mxCell id="GIKHV-PAGVBqHQQBZUJR-25" value="OAuth Sign-up" style="strokeWidth=2;html=1;shape=mxgraph.flowchart.terminator;whiteSpace=wrap;" parent="WIyWlLk6GJQsqaUBKTNV-1" vertex="1">
          <mxGeometry x="51" y="155" width="100" height="60" as="geometry" />
        </mxCell>
        <mxCell id="GIKHV-PAGVBqHQQBZUJR-30" value="회원가입" style="strokeWidth=2;html=1;shape=mxgraph.flowchart.terminator;whiteSpace=wrap;" parent="WIyWlLk6GJQsqaUBKTNV-1" vertex="1">
          <mxGeometry x="595" y="510" width="100" height="60" as="geometry" />
        </mxCell>
        <mxCell id="GIKHV-PAGVBqHQQBZUJR-45" style="edgeStyle=orthogonalEdgeStyle;rounded=0;orthogonalLoop=1;jettySize=auto;html=1;exitX=0.527;exitY=0.894;exitDx=0;exitDy=0;exitPerimeter=0;" parent="WIyWlLk6GJQsqaUBKTNV-1" source="KWqq9Z1RTZp0OEMmkFyI-0" target="GIKHV-PAGVBqHQQBZUJR-39" edge="1">
          <mxGeometry relative="1" as="geometry">
            <mxPoint x="445" y="310" as="sourcePoint" />
          </mxGeometry>
        </mxCell>
        <mxCell id="llcBvOOn5jbD0pACKcjk-21" style="edgeStyle=orthogonalEdgeStyle;rounded=0;orthogonalLoop=1;jettySize=auto;html=1;entryX=1;entryY=0.5;entryDx=0;entryDy=0;entryPerimeter=0;exitX=0;exitY=0.5;exitDx=0;exitDy=0;" parent="WIyWlLk6GJQsqaUBKTNV-1" source="llcBvOOn5jbD0pACKcjk-22" target="KWqq9Z1RTZp0OEMmkFyI-0" edge="1">
          <mxGeometry relative="1" as="geometry">
            <mxPoint x="595" y="297.5" as="sourcePoint" />
          </mxGeometry>
        </mxCell>
        <mxCell id="GIKHV-PAGVBqHQQBZUJR-42" style="edgeStyle=orthogonalEdgeStyle;rounded=0;orthogonalLoop=1;jettySize=auto;html=1;entryX=0;entryY=0.5;entryDx=0;entryDy=0;entryPerimeter=0;" parent="WIyWlLk6GJQsqaUBKTNV-1" source="GIKHV-PAGVBqHQQBZUJR-39" target="GIKHV-PAGVBqHQQBZUJR-30" edge="1">
          <mxGeometry relative="1" as="geometry" />
        </mxCell>
        <mxCell id="GIKHV-PAGVBqHQQBZUJR-39" value="검증" style="strokeWidth=2;html=1;shape=mxgraph.flowchart.decision;whiteSpace=wrap;" parent="WIyWlLk6GJQsqaUBKTNV-1" vertex="1">
          <mxGeometry x="397" y="490" width="100" height="100" as="geometry" />
        </mxCell>
        <mxCell id="GIKHV-PAGVBqHQQBZUJR-43" value="Email Sign-up" style="strokeWidth=2;html=1;shape=mxgraph.flowchart.terminator;whiteSpace=wrap;" parent="WIyWlLk6GJQsqaUBKTNV-1" vertex="1">
          <mxGeometry x="51" y="340" width="100" height="60" as="geometry" />
        </mxCell>
        <mxCell id="tF0vYRnSbMiJtz-haYqU-2" value="인증서버" style="shape=process;whiteSpace=wrap;html=1;backgroundOutline=1;" parent="WIyWlLk6GJQsqaUBKTNV-1" vertex="1">
          <mxGeometry x="390" y="30" width="120" height="60" as="geometry" />
        </mxCell>
        <mxCell id="tF0vYRnSbMiJtz-haYqU-3" value="리소스 서버" style="shape=process;whiteSpace=wrap;html=1;backgroundOutline=1;" parent="WIyWlLk6GJQsqaUBKTNV-1" vertex="1">
          <mxGeometry x="590" y="30" width="120" height="60" as="geometry" />
        </mxCell>
        <mxCell id="tF0vYRnSbMiJtz-haYqU-7" value="이메일&lt;br&gt;유효성검증?" style="rounded=0;whiteSpace=wrap;html=1;" parent="WIyWlLk6GJQsqaUBKTNV-1" vertex="1">
          <mxGeometry x="140" y="400" width="81" height="30" as="geometry" />
        </mxCell>
        <mxCell id="tF0vYRnSbMiJtz-haYqU-9" value="이미 가입 되었으면?" style="rounded=0;whiteSpace=wrap;html=1;" parent="WIyWlLk6GJQsqaUBKTNV-1" vertex="1">
          <mxGeometry x="120.5" y="120" width="120" height="30" as="geometry" />
        </mxCell>
        <mxCell id="KWqq9Z1RTZp0OEMmkFyI-0" value="OAtuh&lt;br&gt;회원가입 form" style="strokeWidth=2;html=1;shape=mxgraph.flowchart.document2;whiteSpace=wrap;size=0.25;" parent="WIyWlLk6GJQsqaUBKTNV-1" vertex="1">
          <mxGeometry x="395" y="267" width="100" height="60" as="geometry" />
        </mxCell>
        <mxCell id="KWqq9Z1RTZp0OEMmkFyI-3" value="회원가입 form" style="strokeWidth=2;html=1;shape=mxgraph.flowchart.document2;whiteSpace=wrap;size=0.25;" parent="WIyWlLk6GJQsqaUBKTNV-1" vertex="1">
          <mxGeometry x="221" y="340" width="100" height="60" as="geometry" />
        </mxCell>
        <mxCell id="llcBvOOn5jbD0pACKcjk-0" value="이메일 기준으로 저장만 하면,&amp;nbsp;&lt;br&gt;리소스 서버의 이메일이 변경 됐을 때 대응불가,&lt;br&gt;만약에 변경된 이메일이 우리 서버에 이미 가입 됐으면?&lt;br&gt;-&amp;gt; 리소스 서버의 ID 사용" style="rounded=0;whiteSpace=wrap;html=1;" parent="WIyWlLk6GJQsqaUBKTNV-1" vertex="1">
          <mxGeometry x="880" y="20" width="320" height="115" as="geometry" />
        </mxCell>
        <mxCell id="llcBvOOn5jbD0pACKcjk-1" value="이메일 회원가입 -&amp;gt; OAuth 연결&lt;br&gt;이메일이 변경되더라도 우리 이메일에는 영향 X" style="rounded=0;whiteSpace=wrap;html=1;" parent="WIyWlLk6GJQsqaUBKTNV-1" vertex="1">
          <mxGeometry x="880" y="150" width="320" height="55" as="geometry" />
        </mxCell>
        <mxCell id="llcBvOOn5jbD0pACKcjk-2" value="닉네임도 유니크 해야 된다." style="rounded=0;whiteSpace=wrap;html=1;" parent="WIyWlLk6GJQsqaUBKTNV-1" vertex="1">
          <mxGeometry x="880" y="210" width="320" height="40" as="geometry" />
        </mxCell>
        <mxCell id="llcBvOOn5jbD0pACKcjk-3" value="비밀번호도 반드시 입력돼야 한다." style="rounded=0;whiteSpace=wrap;html=1;" parent="WIyWlLk6GJQsqaUBKTNV-1" vertex="1">
          <mxGeometry x="880" y="254.25" width="320" height="40" as="geometry" />
        </mxCell>
        <mxCell id="llcBvOOn5jbD0pACKcjk-4" value="동일한 이메일로 가입이 되어있는데 OAuth 회원가입을 하면 안 된다.&lt;br&gt;문제상황 - 이메일을 임의의 사용자가 먼저 선점했을 경우" style="rounded=0;whiteSpace=wrap;html=1;" parent="WIyWlLk6GJQsqaUBKTNV-1" vertex="1">
          <mxGeometry x="880" y="300" width="400" height="55" as="geometry" />
        </mxCell>
        <mxCell id="llcBvOOn5jbD0pACKcjk-9" value="이메일&lt;br&gt;유효성검증?" style="rounded=0;whiteSpace=wrap;html=1;" parent="WIyWlLk6GJQsqaUBKTNV-1" vertex="1">
          <mxGeometry x="1130" y="365" width="81" height="30" as="geometry" />
        </mxCell>
        <mxCell id="llcBvOOn5jbD0pACKcjk-14" style="edgeStyle=orthogonalEdgeStyle;rounded=0;orthogonalLoop=1;jettySize=auto;html=1;entryX=0.5;entryY=0;entryDx=0;entryDy=0;exitX=0.5;exitY=1;exitDx=0;exitDy=0;exitPerimeter=0;" parent="WIyWlLk6GJQsqaUBKTNV-1" source="llcBvOOn5jbD0pACKcjk-18" target="llcBvOOn5jbD0pACKcjk-16" edge="1">
          <mxGeometry relative="1" as="geometry">
            <mxPoint x="850" y="430" as="targetPoint" />
            <mxPoint x="695" y="435" as="sourcePoint" />
          </mxGeometry>
        </mxCell>
        <mxCell id="llcBvOOn5jbD0pACKcjk-15" value="Type은 다른데, 이메일이 같다면?" style="edgeLabel;html=1;align=center;verticalAlign=middle;resizable=0;points=[];" parent="llcBvOOn5jbD0pACKcjk-14" vertex="1" connectable="0">
          <mxGeometry x="-0.1111" relative="1" as="geometry">
            <mxPoint x="49" y="-5" as="offset" />
          </mxGeometry>
        </mxCell>
        <mxCell id="llcBvOOn5jbD0pACKcjk-16" value="바로 이메일 전송&lt;br&gt;-&amp;gt;기존 가입자 추가하는 API" style="rounded=0;whiteSpace=wrap;html=1;" parent="WIyWlLk6GJQsqaUBKTNV-1" vertex="1">
          <mxGeometry x="720" y="450" width="180" height="40" as="geometry" />
        </mxCell>
        <mxCell id="llcBvOOn5jbD0pACKcjk-20" style="edgeStyle=orthogonalEdgeStyle;rounded=0;orthogonalLoop=1;jettySize=auto;html=1;entryX=1;entryY=0.5;entryDx=0;entryDy=0;" parent="WIyWlLk6GJQsqaUBKTNV-1" source="llcBvOOn5jbD0pACKcjk-18" target="llcBvOOn5jbD0pACKcjk-22" edge="1">
          <mxGeometry relative="1" as="geometry">
            <mxPoint x="699" y="287.98" as="targetPoint" />
          </mxGeometry>
        </mxCell>
        <mxCell id="llcBvOOn5jbD0pACKcjk-18" value="검증(미구현)" style="strokeWidth=2;html=1;shape=mxgraph.flowchart.decision;whiteSpace=wrap;" parent="WIyWlLk6GJQsqaUBKTNV-1" vertex="1">
          <mxGeometry x="760" y="238" width="100" height="100" as="geometry" />
        </mxCell>
        <mxCell id="llcBvOOn5jbD0pACKcjk-22" value="&lt;span&gt;email&lt;/span&gt;&lt;br&gt;&lt;span&gt;사용자 id&lt;/span&gt;&lt;br&gt;&lt;span&gt;리소스 서버 타입&lt;/span&gt;" style="shape=parallelogram;html=1;strokeWidth=2;perimeter=parallelogramPerimeter;whiteSpace=wrap;rounded=1;arcSize=12;size=0.23;" parent="WIyWlLk6GJQsqaUBKTNV-1" vertex="1">
          <mxGeometry x="567.5" y="254.25" width="155" height="67.5" as="geometry" />
        </mxCell>
        <mxCell id="iSopKMbjX6KHX5H5sMYG-0" value="클라이언트에 이메일 전송 요청&lt;br&gt;-&amp;gt;이메일 전송 API&lt;br&gt;-&amp;gt; 기존 가입자 추가 API&lt;br&gt;" style="rounded=0;whiteSpace=wrap;html=1;" parent="WIyWlLk6GJQsqaUBKTNV-1" vertex="1">
          <mxGeometry x="920" y="450" width="210" height="50" as="geometry" />
        </mxCell>
        <mxCell id="sbzDoXQVVehtDHF2zEXE-0" value="test" style="rounded=0;whiteSpace=wrap;html=1;" vertex="1" parent="WIyWlLk6GJQsqaUBKTNV-1">
          <mxGeometry x="760" y="590" width="120" height="60" as="geometry" />
        </mxCell>
      </root>
    </mxGraphModel>
  </diagram>
  <diagram id="qUjZ_2V-AQFzoeiwFfVE" name="Sign-in">
    <mxGraphModel dx="1732" dy="682" grid="1" gridSize="10" guides="1" tooltips="1" connect="1" arrows="1" fold="1" page="1" pageScale="1" pageWidth="827" pageHeight="1169" math="0" shadow="0">
      <root>
        <mxCell id="rE9f0x7QAIruueuH3qKX-0" />
        <mxCell id="rE9f0x7QAIruueuH3qKX-1" parent="rE9f0x7QAIruueuH3qKX-0" />
        <mxCell id="n30QrNWdS_tmGGVF1qHN-0" style="edgeStyle=orthogonalEdgeStyle;rounded=0;orthogonalLoop=1;jettySize=auto;html=1;entryX=0;entryY=0.5;entryDx=0;entryDy=0;" parent="rE9f0x7QAIruueuH3qKX-1" target="n30QrNWdS_tmGGVF1qHN-2" edge="1">
          <mxGeometry relative="1" as="geometry">
            <mxPoint x="360" y="205" as="sourcePoint" />
          </mxGeometry>
        </mxCell>
        <mxCell id="n30QrNWdS_tmGGVF1qHN-1" style="edgeStyle=orthogonalEdgeStyle;rounded=0;orthogonalLoop=1;jettySize=auto;html=1;entryX=0;entryY=0.5;entryDx=0;entryDy=0;" parent="rE9f0x7QAIruueuH3qKX-1" source="n30QrNWdS_tmGGVF1qHN-2" edge="1">
          <mxGeometry relative="1" as="geometry">
            <mxPoint x="599" y="205" as="targetPoint" />
          </mxGeometry>
        </mxCell>
        <mxCell id="n30QrNWdS_tmGGVF1qHN-2" value="클라이언트에서&lt;br&gt;인증 요청" style="rounded=1;whiteSpace=wrap;html=1;absoluteArcSize=1;arcSize=14;strokeWidth=2;" parent="rE9f0x7QAIruueuH3qKX-1" vertex="1">
          <mxGeometry x="419" y="180" width="110" height="50" as="geometry" />
        </mxCell>
        <mxCell id="n30QrNWdS_tmGGVF1qHN-3" style="edgeStyle=orthogonalEdgeStyle;rounded=0;orthogonalLoop=1;jettySize=auto;html=1;entryX=0.35;entryY=1.028;entryDx=0;entryDy=0;entryPerimeter=0;exitX=0.364;exitY=-0.027;exitDx=0;exitDy=0;exitPerimeter=0;" parent="rE9f0x7QAIruueuH3qKX-1" source="n30QrNWdS_tmGGVF1qHN-5" edge="1">
          <mxGeometry relative="1" as="geometry">
            <mxPoint x="824" y="111.68000000000006" as="targetPoint" />
          </mxGeometry>
        </mxCell>
        <mxCell id="4DCy9J61daiyoHiNCpVu-1" style="edgeStyle=orthogonalEdgeStyle;rounded=0;orthogonalLoop=1;jettySize=auto;html=1;entryX=0;entryY=0.5;entryDx=0;entryDy=0;entryPerimeter=0;" parent="rE9f0x7QAIruueuH3qKX-1" source="n30QrNWdS_tmGGVF1qHN-5" target="YjOF3GEjK3kQXrpIKrTt-4" edge="1">
          <mxGeometry relative="1" as="geometry" />
        </mxCell>
        <mxCell id="n30QrNWdS_tmGGVF1qHN-5" value="사용자조회" style="rounded=1;whiteSpace=wrap;html=1;absoluteArcSize=1;arcSize=14;strokeWidth=2;" parent="rE9f0x7QAIruueuH3qKX-1" vertex="1">
          <mxGeometry x="784" y="180" width="110" height="50" as="geometry" />
        </mxCell>
        <mxCell id="n30QrNWdS_tmGGVF1qHN-10" style="edgeStyle=orthogonalEdgeStyle;rounded=0;orthogonalLoop=1;jettySize=auto;html=1;exitX=0.697;exitY=1.028;exitDx=0;exitDy=0;exitPerimeter=0;" parent="rE9f0x7QAIruueuH3qKX-1" edge="1">
          <mxGeometry relative="1" as="geometry">
            <mxPoint x="855.6999999999998" y="113.67999999999995" as="sourcePoint" />
            <mxPoint x="856" y="180" as="targetPoint" />
            <Array as="points">
              <mxPoint x="856" y="133" />
              <mxPoint x="856" y="133" />
            </Array>
          </mxGeometry>
        </mxCell>
        <mxCell id="n30QrNWdS_tmGGVF1qHN-11" style="edgeStyle=orthogonalEdgeStyle;rounded=0;orthogonalLoop=1;jettySize=auto;html=1;entryX=0;entryY=0.5;entryDx=0;entryDy=0;entryPerimeter=0;" parent="rE9f0x7QAIruueuH3qKX-1" target="sm0QC50G6mocCfwMEhaO-0" edge="1">
          <mxGeometry relative="1" as="geometry">
            <mxPoint x="354" y="389.6600000000001" as="sourcePoint" />
            <mxPoint x="422.8000000000002" y="390" as="targetPoint" />
          </mxGeometry>
        </mxCell>
        <mxCell id="n30QrNWdS_tmGGVF1qHN-13" style="edgeStyle=orthogonalEdgeStyle;rounded=0;orthogonalLoop=1;jettySize=auto;html=1;entryX=0;entryY=0.5;entryDx=0;entryDy=0;entryPerimeter=0;exitX=1;exitY=0.5;exitDx=0;exitDy=0;exitPerimeter=0;" parent="rE9f0x7QAIruueuH3qKX-1" source="sm0QC50G6mocCfwMEhaO-0" target="n30QrNWdS_tmGGVF1qHN-23" edge="1">
          <mxGeometry relative="1" as="geometry">
            <mxPoint x="540" y="390" as="sourcePoint" />
          </mxGeometry>
        </mxCell>
        <mxCell id="n30QrNWdS_tmGGVF1qHN-22" style="edgeStyle=orthogonalEdgeStyle;rounded=0;orthogonalLoop=1;jettySize=auto;html=1;entryX=0;entryY=0.5;entryDx=0;entryDy=0;" parent="rE9f0x7QAIruueuH3qKX-1" source="n30QrNWdS_tmGGVF1qHN-23" target="4DCy9J61daiyoHiNCpVu-10" edge="1">
          <mxGeometry relative="1" as="geometry">
            <mxPoint x="779" y="390" as="targetPoint" />
          </mxGeometry>
        </mxCell>
        <mxCell id="n30QrNWdS_tmGGVF1qHN-23" value="검증" style="strokeWidth=2;html=1;shape=mxgraph.flowchart.decision;whiteSpace=wrap;" parent="rE9f0x7QAIruueuH3qKX-1" vertex="1">
          <mxGeometry x="609" y="340" width="100" height="100" as="geometry" />
        </mxCell>
        <mxCell id="4DCy9J61daiyoHiNCpVu-13" style="edgeStyle=orthogonalEdgeStyle;rounded=0;orthogonalLoop=1;jettySize=auto;html=1;entryX=0;entryY=0.5;entryDx=0;entryDy=0;entryPerimeter=0;" parent="rE9f0x7QAIruueuH3qKX-1" source="YjOF3GEjK3kQXrpIKrTt-0" edge="1">
          <mxGeometry relative="1" as="geometry">
            <mxPoint x="260" y="390" as="targetPoint" />
          </mxGeometry>
        </mxCell>
        <mxCell id="4DCy9J61daiyoHiNCpVu-14" style="edgeStyle=orthogonalEdgeStyle;rounded=0;orthogonalLoop=1;jettySize=auto;html=1;entryX=0;entryY=0.5;entryDx=0;entryDy=0;entryPerimeter=0;" parent="rE9f0x7QAIruueuH3qKX-1" source="YjOF3GEjK3kQXrpIKrTt-0" target="4DCy9J61daiyoHiNCpVu-16" edge="1">
          <mxGeometry relative="1" as="geometry">
            <mxPoint x="260" y="205" as="targetPoint" />
          </mxGeometry>
        </mxCell>
        <mxCell id="YjOF3GEjK3kQXrpIKrTt-0" value="Sign-in" style="strokeWidth=2;html=1;shape=mxgraph.flowchart.terminator;whiteSpace=wrap;" parent="rE9f0x7QAIruueuH3qKX-1" vertex="1">
          <mxGeometry x="10" y="360" width="100" height="60" as="geometry" />
        </mxCell>
        <mxCell id="4DCy9J61daiyoHiNCpVu-19" style="edgeStyle=orthogonalEdgeStyle;rounded=0;orthogonalLoop=1;jettySize=auto;html=1;" parent="rE9f0x7QAIruueuH3qKX-1" source="YjOF3GEjK3kQXrpIKrTt-3" edge="1">
          <mxGeometry relative="1" as="geometry">
            <mxPoint x="150" y="390" as="targetPoint" />
            <Array as="points">
              <mxPoint x="474" y="480" />
              <mxPoint x="150" y="480" />
            </Array>
          </mxGeometry>
        </mxCell>
        <mxCell id="4DCy9J61daiyoHiNCpVu-20" value="Refersh Token 만료" style="edgeLabel;html=1;align=center;verticalAlign=middle;resizable=0;points=[];" parent="4DCy9J61daiyoHiNCpVu-19" vertex="1" connectable="0">
          <mxGeometry x="0.086" y="1" relative="1" as="geometry">
            <mxPoint as="offset" />
          </mxGeometry>
        </mxCell>
        <mxCell id="4DCy9J61daiyoHiNCpVu-24" style="edgeStyle=orthogonalEdgeStyle;rounded=0;orthogonalLoop=1;jettySize=auto;html=1;" parent="rE9f0x7QAIruueuH3qKX-1" source="YjOF3GEjK3kQXrpIKrTt-3" target="4DCy9J61daiyoHiNCpVu-10" edge="1">
          <mxGeometry relative="1" as="geometry">
            <mxPoint x="661.8499999999999" y="585" as="targetPoint" />
          </mxGeometry>
        </mxCell>
        <mxCell id="sm0QC50G6mocCfwMEhaO-1" value="AccessToken만 초기화" style="edgeLabel;html=1;align=center;verticalAlign=middle;resizable=0;points=[];" parent="4DCy9J61daiyoHiNCpVu-24" vertex="1" connectable="0">
          <mxGeometry x="0.0359" y="-4" relative="1" as="geometry">
            <mxPoint as="offset" />
          </mxGeometry>
        </mxCell>
        <mxCell id="YjOF3GEjK3kQXrpIKrTt-3" value="토큰 검증" style="strokeWidth=2;html=1;shape=mxgraph.flowchart.decision;whiteSpace=wrap;" parent="rE9f0x7QAIruueuH3qKX-1" vertex="1">
          <mxGeometry x="424" y="535" width="100" height="100" as="geometry" />
        </mxCell>
        <mxCell id="4DCy9J61daiyoHiNCpVu-5" style="edgeStyle=orthogonalEdgeStyle;rounded=0;orthogonalLoop=1;jettySize=auto;html=1;" parent="rE9f0x7QAIruueuH3qKX-1" source="YjOF3GEjK3kQXrpIKrTt-4" edge="1">
          <mxGeometry relative="1" as="geometry">
            <mxPoint x="1230" y="112" as="targetPoint" />
            <Array as="points">
              <mxPoint x="1047" y="114" />
              <mxPoint x="1107" y="114" />
              <mxPoint x="1107" y="112" />
              <mxPoint x="1208" y="112" />
            </Array>
          </mxGeometry>
        </mxCell>
        <mxCell id="4DCy9J61daiyoHiNCpVu-6" value="미가입" style="edgeLabel;html=1;align=center;verticalAlign=middle;resizable=0;points=[];" parent="4DCy9J61daiyoHiNCpVu-5" vertex="1" connectable="0">
          <mxGeometry x="0.0061" y="4" relative="1" as="geometry">
            <mxPoint as="offset" />
          </mxGeometry>
        </mxCell>
        <mxCell id="4DCy9J61daiyoHiNCpVu-21" style="edgeStyle=orthogonalEdgeStyle;rounded=0;orthogonalLoop=1;jettySize=auto;html=1;entryX=0.5;entryY=0;entryDx=0;entryDy=0;" parent="rE9f0x7QAIruueuH3qKX-1" source="YjOF3GEjK3kQXrpIKrTt-4" target="4DCy9J61daiyoHiNCpVu-10" edge="1">
          <mxGeometry relative="1" as="geometry" />
        </mxCell>
        <mxCell id="YjOF3GEjK3kQXrpIKrTt-4" value="가입여부" style="strokeWidth=2;html=1;shape=mxgraph.flowchart.decision;whiteSpace=wrap;" parent="rE9f0x7QAIruueuH3qKX-1" vertex="1">
          <mxGeometry x="997" y="155" width="100" height="100" as="geometry" />
        </mxCell>
        <mxCell id="4DCy9J61daiyoHiNCpVu-0" value="리소스 서버&lt;br&gt;Social ID" style="shape=process;whiteSpace=wrap;html=1;backgroundOutline=1;" parent="rE9f0x7QAIruueuH3qKX-1" vertex="1">
          <mxGeometry x="780" y="52" width="120" height="60" as="geometry" />
        </mxCell>
        <mxCell id="4DCy9J61daiyoHiNCpVu-10" value="&lt;span style=&quot;font-size: 11px ; background-color: rgb(255 , 255 , 255)&quot;&gt;AccessToken?어디에?&lt;/span&gt;&lt;br&gt;RefreshToken(Cookie)&lt;br&gt;User info" style="shape=parallelogram;html=1;strokeWidth=2;perimeter=parallelogramPerimeter;whiteSpace=wrap;rounded=1;arcSize=12;size=0.23;" parent="rE9f0x7QAIruueuH3qKX-1" vertex="1">
          <mxGeometry x="840" y="360" width="190" height="60" as="geometry" />
        </mxCell>
        <mxCell id="4DCy9J61daiyoHiNCpVu-17" style="edgeStyle=orthogonalEdgeStyle;rounded=0;orthogonalLoop=1;jettySize=auto;html=1;entryX=0;entryY=0.5;entryDx=0;entryDy=0;entryPerimeter=0;" parent="rE9f0x7QAIruueuH3qKX-1" source="4DCy9J61daiyoHiNCpVu-11" target="YjOF3GEjK3kQXrpIKrTt-3" edge="1">
          <mxGeometry relative="1" as="geometry" />
        </mxCell>
        <mxCell id="4DCy9J61daiyoHiNCpVu-11" value="Token Sign-in&lt;br&gt;(Access 만료)" style="strokeWidth=2;html=1;shape=mxgraph.flowchart.terminator;whiteSpace=wrap;" parent="rE9f0x7QAIruueuH3qKX-1" vertex="1">
          <mxGeometry x="260" y="555" width="100" height="60" as="geometry" />
        </mxCell>
        <mxCell id="4DCy9J61daiyoHiNCpVu-15" value="&lt;span&gt;Email Sign-in&lt;/span&gt;" style="strokeWidth=2;html=1;shape=mxgraph.flowchart.start_2;whiteSpace=wrap;" parent="rE9f0x7QAIruueuH3qKX-1" vertex="1">
          <mxGeometry x="260" y="340" width="100" height="100" as="geometry" />
        </mxCell>
        <mxCell id="4DCy9J61daiyoHiNCpVu-16" value="&lt;span&gt;OAuth Sign-in&lt;/span&gt;" style="strokeWidth=2;html=1;shape=mxgraph.flowchart.start_2;whiteSpace=wrap;" parent="rE9f0x7QAIruueuH3qKX-1" vertex="1">
          <mxGeometry x="260" y="155" width="100" height="100" as="geometry" />
        </mxCell>
        <mxCell id="4DCy9J61daiyoHiNCpVu-22" value="실패시 어떡할건지?" style="rounded=0;whiteSpace=wrap;html=1;" parent="rE9f0x7QAIruueuH3qKX-1" vertex="1">
          <mxGeometry x="598" y="450" width="120" height="30" as="geometry" />
        </mxCell>
        <mxCell id="sm0QC50G6mocCfwMEhaO-0" value="로그인 form" style="strokeWidth=2;html=1;shape=mxgraph.flowchart.document2;whiteSpace=wrap;size=0.25;" parent="rE9f0x7QAIruueuH3qKX-1" vertex="1">
          <mxGeometry x="430" y="360" width="100" height="60" as="geometry" />
        </mxCell>
        <mxCell id="Co0LGwbKmcPfQNxEIr6v-0" style="edgeStyle=orthogonalEdgeStyle;rounded=0;orthogonalLoop=1;jettySize=auto;html=1;entryX=0.652;entryY=0.013;entryDx=0;entryDy=0;entryPerimeter=0;exitX=0.673;exitY=1.017;exitDx=0;exitDy=0;exitPerimeter=0;" parent="rE9f0x7QAIruueuH3qKX-1" target="Co0LGwbKmcPfQNxEIr6v-2" edge="1">
          <mxGeometry relative="1" as="geometry">
            <mxPoint x="671.2999999999997" y="111.0200000000001" as="sourcePoint" />
          </mxGeometry>
        </mxCell>
        <mxCell id="Co0LGwbKmcPfQNxEIr6v-1" style="edgeStyle=orthogonalEdgeStyle;rounded=0;orthogonalLoop=1;jettySize=auto;html=1;entryX=0.373;entryY=1.061;entryDx=0;entryDy=0;entryPerimeter=0;exitX=0.391;exitY=0.027;exitDx=0;exitDy=0;exitPerimeter=0;" parent="rE9f0x7QAIruueuH3qKX-1" source="Co0LGwbKmcPfQNxEIr6v-2" edge="1">
          <mxGeometry relative="1" as="geometry">
            <mxPoint x="641.2999999999997" y="113.66000000000008" as="targetPoint" />
          </mxGeometry>
        </mxCell>
        <mxCell id="lP4dnDBCyvb4eyoiWezD-0" style="edgeStyle=orthogonalEdgeStyle;rounded=0;orthogonalLoop=1;jettySize=auto;html=1;entryX=0;entryY=0.5;entryDx=0;entryDy=0;" parent="rE9f0x7QAIruueuH3qKX-1" source="Co0LGwbKmcPfQNxEIr6v-2" target="n30QrNWdS_tmGGVF1qHN-5" edge="1">
          <mxGeometry relative="1" as="geometry" />
        </mxCell>
        <mxCell id="Co0LGwbKmcPfQNxEIr6v-2" value="인증" style="rounded=1;whiteSpace=wrap;html=1;absoluteArcSize=1;arcSize=14;strokeWidth=2;" parent="rE9f0x7QAIruueuH3qKX-1" vertex="1">
          <mxGeometry x="599" y="180" width="110" height="50" as="geometry" />
        </mxCell>
        <mxCell id="Co0LGwbKmcPfQNxEIr6v-3" value="인증서버" style="shape=process;whiteSpace=wrap;html=1;backgroundOutline=1;" parent="rE9f0x7QAIruueuH3qKX-1" vertex="1">
          <mxGeometry x="599" y="50" width="120" height="60" as="geometry" />
        </mxCell>
      </root>
    </mxGraphModel>
  </diagram>
</mxfile>
